<svg preserveAspectRatio="none" overflow="visible" style="display: block;" width="24" height="24" viewBox="0 0 24 24" fill="none" xmlns="http://www.w3.org/2000/svg">
<g id="Icon/Sound-off">
<path id="Vector (Stroke)" d="M11.25 4.17383C11.25 4.11256 11.2341 4.07892 11.2217 4.06055C11.2066 4.03841 11.1841 4.02054 11.1592 4.00977C11.1345 3.99922 11.116 3.9993 11.1064 4.00098C11.1028 4.00164 11.0853 4.0039 11.0557 4.0332L7.70312 7.82031C7.69548 7.82893 7.68762 7.83735 7.67969 7.8457C7.48414 8.05153 7.24896 8.21566 6.98828 8.32813C6.72766 8.44056 6.44692 8.49896 6.16309 8.5H2.125C2.10389 8.5 2.0782 8.50766 2.05078 8.53613C2.0227 8.56534 2.00004 8.61068 2 8.66992V15.3291C2.00001 15.3894 2.02277 15.4357 2.05078 15.4648C2.07805 15.4931 2.10398 15.5 2.125 15.5H6.15332C6.44174 15.5009 6.72704 15.561 6.99121 15.6768C7.18954 15.7637 7.37314 15.881 7.53516 16.0234L7.68945 16.1738L7.7041 16.1895L11.0498 19.96C11.0821 19.9945 11.1012 19.9982 11.1055 19.999C11.1151 20.0009 11.1341 20.0008 11.1592 19.9902C11.1843 19.9796 11.2067 19.9623 11.2217 19.9404C11.234 19.9224 11.25 19.8892 11.25 19.8271V4.17383ZM21.793 7.91797C22.1834 7.52751 22.8165 7.52764 23.207 7.91797C23.5976 8.30849 23.5976 8.94151 23.207 9.33203L20.5391 12L23.207 14.668C23.5976 15.0585 23.5976 15.6915 23.207 16.082C22.8165 16.4725 22.1835 16.4725 21.793 16.082L19.125 13.4141L16.457 16.082C16.0665 16.4725 15.4335 16.4726 15.043 16.082C14.6526 15.6915 14.6525 15.0584 15.043 14.668L17.7109 12L15.043 9.33203C14.6526 8.94151 14.6526 8.30845 15.043 7.91797C15.4334 7.52749 16.0665 7.5276 16.457 7.91797L19.125 10.5859L21.793 7.91797ZM13.25 19.8271C13.2498 21.6967 10.9732 22.805 9.58984 21.3271C9.58385 21.3207 9.57712 21.3142 9.57129 21.3076L6.21973 17.5313C6.21064 17.522 6.20035 17.514 6.18848 17.5088L6.14746 17.5H2.125C0.914465 17.5 2.50348e-05 16.4902 0 15.3291V8.66992C8.87163e-05 7.50933 0.915121 6.50001 2.125 6.5H6.15625C6.16993 6.49989 6.18373 6.49663 6.19629 6.49121C6.20884 6.48573 6.22006 6.4777 6.22949 6.46777L9.58105 2.68262C9.58999 2.67252 9.59906 2.66207 9.6084 2.65234C11.0018 1.20168 13.25 2.3189 13.25 4.17383V19.8271Z" fill="white"/>
</g>
</svg>
